<svg width="20" height="20" viewBox="0 0 20 20" fill="none" xmlns="http://www.w3.org/2000/svg">
<g id="algorithm (1) 1">
<g id="Group 10164">
<path id="Vector" d="M10 5.5C11.2426 5.5 12.25 4.49264 12.25 3.25C12.25 2.00736 11.2426 1 10 1C8.75736 1 7.75 2.00736 7.75 3.25C7.75 4.49264 8.75736 5.5 10 5.5Z" fill="#858585"/>
<path id="Vector_2" d="M12.25 14.5H7.75C7.43934 14.5 7.1875 14.7518 7.1875 15.0625V18.4375C7.1875 18.7482 7.43934 19 7.75 19H12.25C12.5607 19 12.8125 18.7482 12.8125 18.4375V15.0625C12.8125 14.7518 12.5607 14.5 12.25 14.5Z" fill="#858585"/>
<path id="Vector_3" d="M13.9375 8.87494C13.9375 9.06057 13.8419 9.24057 13.6844 9.34182L10.3094 11.5918C10.2194 11.6537 10.1069 11.6874 10 11.6874C9.89313 11.6874 9.78062 11.6537 9.69062 11.5918L6.31562 9.34182C6.15812 9.24057 6.0625 9.06057 6.0625 8.87494C6.0625 8.68932 6.15812 8.50932 6.31562 8.40807L9.69062 6.15807C9.87625 6.02869 10.1237 6.02869 10.3094 6.15807L13.6844 8.40807C13.8419 8.50932 13.9375 8.68932 13.9375 8.87494Z" fill="#858585"/>
<path id="Vector_4" d="M4.9375 10.5625H1.5625C1.25184 10.5625 1 10.8143 1 11.125V14.5C1 14.8107 1.25184 15.0625 1.5625 15.0625H4.9375C5.24816 15.0625 5.5 14.8107 5.5 14.5V11.125C5.5 10.8143 5.24816 10.5625 4.9375 10.5625Z" fill="#858585"/>
<path id="Vector_5" d="M3.25 11.1909C2.93939 11.1909 2.6875 10.939 2.6875 10.6284V9.4375C2.6875 8.81706 3.19206 8.3125 3.8125 8.3125H6.625C6.93561 8.3125 7.1875 8.56439 7.1875 8.875C7.1875 9.18561 6.93561 9.4375 6.625 9.4375H3.8125V10.6284C3.8125 10.939 3.56061 11.1909 3.25 11.1909Z" fill="#858585"/>
<path id="Vector_6" d="M7.75 17.3125H3.8125C3.19206 17.3125 2.6875 16.8079 2.6875 16.1875V14.5C2.6875 14.1894 2.93939 13.9375 3.25 13.9375C3.56061 13.9375 3.8125 14.1894 3.8125 14.5V16.1875H7.75C8.06061 16.1875 8.3125 16.4394 8.3125 16.75C8.3125 17.0606 8.06061 17.3125 7.75 17.3125Z" fill="#858585"/>
<path id="Vector_7" d="M18.4375 10.5625H15.0625C14.7518 10.5625 14.5 10.8143 14.5 11.125V14.5C14.5 14.8107 14.7518 15.0625 15.0625 15.0625H18.4375C18.7482 15.0625 19 14.8107 19 14.5V11.125C19 10.8143 18.7482 10.5625 18.4375 10.5625Z" fill="#858585"/>
<path id="Vector_8" d="M16.75 11.1909C16.4394 11.1909 16.1875 10.939 16.1875 10.6284V9.4375H13.375C13.0644 9.4375 12.8125 9.18561 12.8125 8.875C12.8125 8.56439 13.0644 8.3125 13.375 8.3125H16.1875C16.8079 8.3125 17.3125 8.81706 17.3125 9.4375V10.6284C17.3125 10.939 17.0606 11.1909 16.75 11.1909Z" fill="#858585"/>
<path id="Vector_9" d="M16.1875 17.3125H12.25C11.9394 17.3125 11.6875 17.0606 11.6875 16.75C11.6875 16.4394 11.9394 16.1875 12.25 16.1875H16.1875V14.5C16.1875 14.1894 16.4394 13.9375 16.75 13.9375C17.0606 13.9375 17.3125 14.1894 17.3125 14.5V16.1875C17.3125 16.8079 16.8079 17.3125 16.1875 17.3125Z" fill="#858585"/>
<path id="Vector_10" d="M10 7.1875C9.68939 7.1875 9.4375 6.93561 9.4375 6.625V4.9375C9.4375 4.62689 9.68939 4.375 10 4.375C10.3106 4.375 10.5625 4.62689 10.5625 4.9375V6.625C10.5625 6.93561 10.3106 7.1875 10 7.1875Z" fill="#858585"/>
</g>
</g>
</svg>
