<svg width="20" height="20" viewBox="0 0 20 20" fill="none" xmlns="http://www.w3.org/2000/svg">
<g id="icon/Dashboard">
<path id="Vector" d="M18.4471 7.3665C17.9869 6.25756 17.3198 5.25006 16.4828 4.39984C15.6478 3.54756 14.6582 2.86835 13.5691 2.39984C12.4376 1.91234 11.2386 1.6665 10.0007 1.6665C8.76274 1.6665 7.56371 1.91234 6.4322 2.39984C5.34306 2.86835 4.35355 3.54756 3.51851 4.39984C2.68145 5.25006 2.01437 6.25756 1.55422 7.3665C1.07543 8.51859 0.833984 9.73942 0.833984 10.9998C0.833984 13.7644 2.02688 16.3686 4.10575 18.1478L4.14053 18.1769C4.25921 18.2769 4.40858 18.3332 4.56203 18.3332H15.4413C15.5948 18.3332 15.7441 18.2769 15.8628 18.1769L15.8976 18.1478C17.9744 16.3686 19.1673 13.7644 19.1673 10.9998C19.1673 9.73942 18.9238 8.51859 18.4471 7.3665ZM15.1037 16.7498H4.8976C4.10697 16.024 3.47506 15.137 3.0429 14.1464C2.61073 13.1558 2.38796 12.0838 2.38904 10.9998C2.38904 8.929 3.1809 6.98317 4.61933 5.52067C6.05776 4.05609 7.96884 3.24984 10.0007 3.24984C12.0345 3.24984 13.9456 4.05609 15.382 5.52067C16.8204 6.98525 17.6123 8.93109 17.6123 10.9998C17.6123 13.1998 16.7017 15.2811 15.1037 16.7498ZM12.2821 8.11442C12.2513 8.0834 12.2098 8.066 12.1665 8.066C12.1232 8.066 12.0816 8.0834 12.0509 8.11442L10.3219 9.87484C9.93927 9.77067 9.51572 9.87067 9.21494 10.1769C9.1084 10.2852 9.02388 10.4138 8.96621 10.5553C8.90855 10.6969 8.87886 10.8487 8.87886 11.0019C8.87886 11.1552 8.90855 11.3069 8.96621 11.4485C9.02388 11.5901 9.1084 11.7187 9.21494 11.8269C9.32127 11.9354 9.44757 12.0214 9.5866 12.0802C9.72564 12.1389 9.87468 12.1691 10.0252 12.1691C10.1757 12.1691 10.3248 12.1389 10.4638 12.0802C10.6028 12.0214 10.7291 11.9354 10.8355 11.8269C10.978 11.6823 11.0805 11.5019 11.1325 11.304C11.1846 11.1061 11.1845 10.8977 11.1322 10.6998L12.8611 8.93942C12.9246 8.87484 12.9246 8.76859 12.8611 8.704L12.2821 8.11442V8.11442ZM9.5505 5.99984H10.4508C10.5408 5.99984 10.6145 5.92484 10.6145 5.83317V4.1665C10.6145 4.07484 10.5408 3.99984 10.4508 3.99984H9.5505C9.46047 3.99984 9.38681 4.07484 9.38681 4.1665V5.83317C9.38681 5.92484 9.46047 5.99984 9.5505 5.99984ZM14.8704 10.5415V11.4582C14.8704 11.5498 14.9441 11.6248 15.0341 11.6248H16.671C16.7611 11.6248 16.8347 11.5498 16.8347 11.4582V10.5415C16.8347 10.4498 16.7611 10.3748 16.671 10.3748H15.0341C14.9441 10.3748 14.8704 10.4498 14.8704 10.5415ZM15.1303 6.43317L14.494 5.78525C14.4632 5.75424 14.4216 5.73684 14.3783 5.73684C14.3351 5.73684 14.2935 5.75424 14.2627 5.78525L13.1046 6.96442C13.0742 6.99574 13.0571 7.03805 13.0571 7.08213C13.0571 7.12621 13.0742 7.16851 13.1046 7.19984L13.741 7.84775C13.8044 7.91234 13.9088 7.91234 13.9722 7.84775L15.1303 6.66859C15.1937 6.604 15.1937 6.49775 15.1303 6.43317ZM5.74674 5.78525C5.71598 5.75424 5.67443 5.73684 5.63114 5.73684C5.58784 5.73684 5.5463 5.75424 5.51553 5.78525L4.87919 6.43317C4.84872 6.46449 4.83163 6.5068 4.83163 6.55088C4.83163 6.59496 4.84872 6.63726 4.87919 6.66859L6.0373 7.84775C6.10073 7.91234 6.20508 7.91234 6.26851 7.84775L6.90486 7.19984C6.96829 7.13525 6.96829 7.029 6.90486 6.96442L5.74674 5.78525ZM4.88532 10.3748H3.24842C3.15839 10.3748 3.08473 10.4498 3.08473 10.5415V11.4582C3.08473 11.5498 3.15839 11.6248 3.24842 11.6248H4.88532C4.97535 11.6248 5.04901 11.5498 5.04901 11.4582V10.5415C5.04901 10.4498 4.97535 10.3748 4.88532 10.3748Z" fill="#1890FF"/>
</g>
</svg>
