<svg width="18" height="17" viewBox="0 0 18 17" fill="none" xmlns="http://www.w3.org/2000/svg">
<g id="Group 1">
<path id="Vector" d="M17.1112 0.222168H0.94166C0.819835 0.222168 0.72016 0.300293 0.72016 0.395779V1.61106C0.72016 1.70654 0.819835 1.78467 0.94166 1.78467H17.1112C17.233 1.78467 17.3327 1.70654 17.3327 1.61106V0.395779C17.3327 0.300293 17.233 0.222168 17.1112 0.222168ZM17.1112 4.10913H0.72016C0.598335 4.10913 0.72016 6.46349 0.72016 6.55897V7.77425C0.72016 7.86974 0.819835 7.94786 0.94166 7.94786H17.1112C17.233 7.94786 17.3327 7.86974 17.3327 7.77425V4.28274C17.3327 4.18725 17.233 4.10913 17.1112 4.10913ZM17.1112 8.56515H0.94166C0.819835 8.56515 0.72016 8.64327 0.72016 8.73876V13.9374C0.72016 14.0329 0.819835 14.1111 0.94166 14.1111H17.1112C17.233 14.1111 17.3327 14.0329 17.3327 13.9374V8.73876C17.3327 8.64327 17.233 8.56515 17.1112 8.56515Z" fill="#858585"/>
<path id="Vector_2" d="M17.1117 14.6665H0.942203C0.820378 14.6665 0.720703 14.7446 0.720703 14.8401V16.0554C0.720703 16.1509 0.820378 16.229 0.942203 16.229H17.1117C17.2335 16.229 17.3332 16.1509 17.3332 16.0554V14.8401C17.3332 14.7446 17.2335 14.6665 17.1117 14.6665Z" fill="#858585"/>
</g>
</svg>
