<svg width="20" height="20" viewBox="0 0 20 20" fill="none" xmlns="http://www.w3.org/2000/svg">
<g id="icon/Logout" clip-path="url(#clip0_68_21249)">
<path id="Vector" d="M17.9475 14.9118H16.3783C16.2711 14.9118 16.1707 14.9587 16.1037 15.0413C15.9475 15.231 15.7801 15.414 15.6037 15.5881C14.8825 16.3101 14.0282 16.8854 13.0881 17.2823C12.1141 17.6937 11.0673 17.9048 10.01 17.9029C8.94079 17.9029 7.90507 17.693 6.93186 17.2823C5.99174 16.8854 5.13745 16.3101 4.41623 15.5881C3.69372 14.8686 3.11761 14.0158 2.71981 13.077C2.30686 12.1038 2.09927 11.0703 2.09927 10.0011C2.09927 8.93188 2.30909 7.8984 2.71981 6.92519C3.11713 5.98546 3.68856 5.13947 4.41623 4.41403C5.14391 3.68858 5.98989 3.11715 6.93186 2.71983C7.90507 2.30912 8.94079 2.09929 10.01 2.09929C11.0792 2.09929 12.1149 2.30688 13.0881 2.71983C14.0301 3.11715 14.8761 3.68858 15.6037 4.41403C15.7801 4.59037 15.9453 4.7734 16.1037 4.9609C16.1707 5.04349 16.2734 5.09037 16.3783 5.09037H17.9475C18.0881 5.09037 18.1752 4.93412 18.097 4.81581C16.385 2.1551 13.3895 0.393937 9.98543 0.402866C4.63722 0.416259 0.349269 4.75778 0.40284 10.0993C0.456412 15.356 4.73766 19.5993 10.01 19.5993C13.4051 19.5993 16.3872 17.8404 18.097 15.1863C18.1729 15.068 18.0881 14.9118 17.9475 14.9118ZM19.9319 9.86046L16.7645 7.36046C16.6461 7.26671 16.4743 7.35153 16.4743 7.50108V9.19751H9.46534C9.36713 9.19751 9.28677 9.27787 9.28677 9.37608V10.6261C9.28677 10.7243 9.36713 10.8047 9.46534 10.8047H16.4743V12.5011C16.4743 12.6506 16.6484 12.7355 16.7645 12.6417L19.9319 10.1417C19.9532 10.125 19.9705 10.1037 19.9823 10.0793C19.9942 10.0549 20.0004 10.0282 20.0004 10.0011C20.0004 9.97398 19.9942 9.94723 19.9823 9.92287C19.9705 9.8985 19.9532 9.87716 19.9319 9.86046Z" fill="black" fill-opacity="0.85"/>
</g>
<defs>
<clipPath id="clip0_68_21249">
<rect width="20" height="20" fill="white"/>
</clipPath>
</defs>
</svg>
