<svg width="20" height="20" viewBox="0 0 20 20" fill="none" xmlns="http://www.w3.org/2000/svg">
<g id="icon/PieChart">
<path id="Vector" d="M17.1995 10.123H9.87698V2.80056C9.87698 2.71056 9.80335 2.63693 9.71335 2.63693H9.18155C8.10711 2.63517 7.04292 2.84588 6.05022 3.25693C5.05751 3.66798 4.15588 4.27126 3.3972 5.03207C2.65004 5.77692 2.05471 6.65984 1.64431 7.63175C1.21724 8.63979 0.998099 9.72368 1.00001 10.8185C0.998253 11.8929 1.20896 12.9571 1.62001 13.9498C2.03107 14.9425 2.63435 15.8441 3.39516 16.6028C4.14581 17.3535 5.02124 17.9446 5.99484 18.3557C7.00288 18.7828 8.08677 19.0019 9.18155 19C10.256 19.0017 11.3202 18.791 12.3129 18.38C13.3056 17.9689 14.2072 17.3657 14.9659 16.6048C15.7166 15.8542 16.3077 14.9788 16.7188 14.0052C17.1459 12.9971 17.365 11.9132 17.3631 10.8185V10.2867C17.3631 10.1967 17.2895 10.123 17.1995 10.123ZM13.9616 15.6415C13.3283 16.2699 12.5771 16.7672 11.7513 17.1048C10.9254 17.4425 10.041 17.6138 9.14882 17.6091C7.34684 17.6009 5.65326 16.8953 4.37899 15.621C3.09653 14.3386 2.39087 12.6327 2.39087 10.8185C2.39087 9.0042 3.09653 7.29835 4.37899 6.0159C5.49577 4.89912 6.93367 4.21801 8.48612 4.06256V11.5139H15.9375C15.78 13.0745 15.0927 14.5206 13.9616 15.6415ZM18.9994 8.98579L18.9462 8.409C18.7724 6.5252 17.9358 4.74776 16.5899 3.40599C15.2431 2.06176 13.4693 1.22984 11.5746 1.0538L10.9958 1.00062C10.8997 0.99244 10.8179 1.06607 10.8179 1.16221V9.01852C10.8179 9.10852 10.8915 9.18215 10.9815 9.18215L18.8358 9.1617C18.9319 9.1617 19.0076 9.07988 18.9994 8.98579ZM12.2046 7.79538V2.54693C13.4931 2.81661 14.6755 3.45471 15.6081 4.38368C16.5429 5.31638 17.1831 6.5027 17.449 7.78106L12.2046 7.79538Z" fill="#858585"/>
</g>
</svg>
