<svg width="32" height="32" viewBox="0 0 32 32" fill="none" xmlns="http://www.w3.org/2000/svg">
<g id="question" clip-path="url(#clip0_68_21551)">
<g id="Group">
<path id="Vector" d="M15.999 24.3008L14.168 27.9629L15.999 31.625C18.0215 31.625 19.6611 29.9854 19.6611 27.9629C19.6611 25.9404 18.0215 24.3008 15.999 24.3008Z" fill="white"/>
<path id="Vector_2" d="M12.3379 27.9629C12.3379 29.9854 13.9775 31.625 16 31.625V24.3008C13.9775 24.3008 12.3379 25.9404 12.3379 27.9629Z" fill="white"/>
<path id="Vector_3" d="M16 0.375L12.3379 4.03711L16 7.69922C17.2116 7.69922 18.1973 8.68488 18.1973 9.89648C18.1973 10.5421 17.9139 11.1532 17.4197 11.5732L16 12.7802L13.5586 17.6249L16 22.4697H19.6621V19.2802L22.1631 17.1539C24.2974 15.3403 25.5215 12.6951 25.5215 9.89648C25.5215 4.6463 21.2502 0.375 16 0.375Z" fill="white"/>
<g id="Group_2">
<path id="Vector_4" d="M12.3379 15.8938V22.4698H16V12.7803L12.3379 15.8938Z" fill="white"/>
<path id="Vector_5" d="M6.47852 9.89648V10.812H13.8027V9.89648C13.8027 8.68488 14.7884 7.69922 16 7.69922V0.375C10.7498 0.375 6.47852 4.6463 6.47852 9.89648Z" fill="white"/>
</g>
</g>
</g>
<defs>
<clipPath id="clip0_68_21551">
<rect width="31.25" height="31.25" fill="white" transform="translate(0.375 0.375)"/>
</clipPath>
</defs>
</svg>
