<svg width="20" height="20" viewBox="0 0 20 20" fill="none" xmlns="http://www.w3.org/2000/svg">
<g id="target-audience 1" clip-path="url(#clip0_68_21224)">
<path id="Vector" d="M17.6172 14.7852C17.9408 14.7852 18.2031 14.5228 18.2031 14.1992V11.2695C18.2031 9.89668 17.412 8.70531 16.2619 8.12676C16.4997 7.80316 16.6406 7.40414 16.6406 6.97266C16.6406 5.8957 15.7645 5.01953 14.6875 5.01953C13.6105 5.01953 12.7344 5.8957 12.7344 6.97266C12.7344 7.40367 12.875 7.8023 13.1123 8.1257C12.9575 8.20348 12.8082 8.29297 12.6654 8.39383C12.3793 8.06121 12.0321 7.7827 11.6414 7.57551C11.9574 7.20133 12.1484 6.71836 12.1484 6.19141C12.1484 5.00676 11.1846 4.04297 10 4.04297C8.81535 4.04297 7.85156 5.00676 7.85156 6.19141C7.85156 6.71836 8.04258 7.20133 8.35859 7.57551C7.96797 7.78266 7.62074 8.06113 7.33461 8.39371C7.19184 8.29297 7.04234 8.20375 6.88742 8.12598C7.12492 7.80254 7.26559 7.40379 7.26559 6.97266C7.26559 5.8957 6.38941 5.01953 5.31246 5.01953C4.23551 5.01953 3.35934 5.8957 3.35934 6.97266C3.35934 7.40414 3.50023 7.8032 3.73809 8.12676C2.58797 8.70531 1.79688 9.89668 1.79688 11.2695V14.1992C1.79688 14.5228 2.05922 14.7852 2.38281 14.7852H6.48438V15.3711C6.48438 15.6947 6.74672 15.957 7.07031 15.957H12.9297C13.2533 15.957 13.5156 15.6947 13.5156 15.3711V14.7852H17.6172ZM13.9062 6.97266C13.9062 6.54187 14.2567 6.19141 14.6875 6.19141C15.1183 6.19141 15.4688 6.54187 15.4688 6.97266C15.4688 7.40344 15.1183 7.75391 14.6875 7.75391C14.2567 7.75391 13.9062 7.40344 13.9062 6.97266ZM14.6875 8.92578C15.9798 8.92578 17.0312 9.97719 17.0312 11.2695V13.6133H13.5156V10.6836C13.5156 10.2311 13.4296 9.79832 13.2732 9.40066C13.6783 9.09281 14.17 8.92578 14.6875 8.92578ZM9.02344 6.19141C9.02344 5.65293 9.46152 5.21484 10 5.21484C10.5385 5.21484 10.9766 5.65293 10.9766 6.19141C10.9766 6.72988 10.5385 7.16797 10 7.16797C9.46152 7.16797 9.02344 6.72988 9.02344 6.19141ZM4.53125 6.97266C4.53125 6.54187 4.88172 6.19141 5.3125 6.19141C5.74328 6.19141 6.09375 6.54187 6.09375 6.97266C6.09375 7.40344 5.74328 7.75391 5.3125 7.75391C4.88172 7.75391 4.53125 7.40344 4.53125 6.97266ZM2.96875 13.6133V11.2695C2.96875 9.97719 4.02016 8.92578 5.3125 8.92578C5.82859 8.92578 6.32125 9.09324 6.72664 9.40098C6.57031 9.79855 6.48438 10.2312 6.48438 10.6836V13.6133H2.96875ZM12.3438 14.7852H7.65625V10.6836C7.65625 9.39125 8.70766 8.33984 10 8.33984C11.2923 8.33984 12.3438 9.39125 12.3438 10.6836V14.7852Z" fill="#858585"/>
<path id="Vector_2" d="M19.4141 14.4922C19.0905 14.4922 18.8281 14.7545 18.8281 15.0781V18.0469H15.8594C15.5358 18.0469 15.2734 18.3092 15.2734 18.6328C15.2734 18.9564 15.5358 19.2188 15.8594 19.2188H19.4141C19.7377 19.2188 20 18.9564 20 18.6328V15.0781C20 14.7545 19.7377 14.4922 19.4141 14.4922Z" fill="#858585"/>
<path id="Vector_3" d="M4.14062 18.0469H1.17188V15.0781C1.17188 14.7545 0.909531 14.4922 0.585938 14.4922C0.262344 14.4922 0 14.7545 0 15.0781V18.6328C0 18.9564 0.262344 19.2188 0.585938 19.2188H4.14062C4.46422 19.2188 4.72656 18.9564 4.72656 18.6328C4.72656 18.3092 4.46422 18.0469 4.14062 18.0469Z" fill="#858585"/>
<path id="Vector_4" d="M0.585938 5.50781C0.909531 5.50781 1.17188 5.24547 1.17188 4.92188V1.95312H4.14062C4.46422 1.95312 4.72656 1.69078 4.72656 1.36719C4.72656 1.04359 4.46422 0.78125 4.14062 0.78125H0.585938C0.262344 0.78125 0 1.04359 0 1.36719V4.92188C0 5.24547 0.262344 5.50781 0.585938 5.50781Z" fill="#858585"/>
<path id="Vector_5" d="M19.4141 0.78125H15.8203C15.4967 0.78125 15.2344 1.04359 15.2344 1.36719C15.2344 1.69078 15.4967 1.95312 15.8203 1.95312H18.8281V4.92188C18.8281 5.24547 19.0905 5.50781 19.4141 5.50781C19.7377 5.50781 20 5.24547 20 4.92188V1.36719C20 1.04359 19.7377 0.78125 19.4141 0.78125Z" fill="#858585"/>
</g>
<defs>
<clipPath id="clip0_68_21224">
<rect width="20" height="20" fill="white"/>
</clipPath>
</defs>
</svg>
